<svg width="14" height="14" viewBox="0 0 14 14" fill="none" xmlns="http://www.w3.org/2000/svg">
<path fill-rule="evenodd" clip-rule="evenodd" d="M13.0313 0.166267L13.8328 0.967727C14.0545 1.18941 14.0545 1.54751 13.8328 1.76919L8.61477 6.99857L7.00617 5.38997L12.2299 0.166267C12.4516 -0.0554225 12.8097 -0.0554225 13.0313 0.166267ZM0.166267 0.973457L0.973407 0.166308C1.19509 -0.0553724 1.55319 -0.0553724 1.77487 0.166308L6.99857 5.38997L5.38997 6.99867L0.166267 1.77492C-0.0554225 1.55324 -0.0554225 1.19514 0.166267 0.973457ZM12.2223 13.831L6.99857 8.60727L8.60157 7.00437L13.8253 12.2281C14.047 12.4497 14.047 12.8078 13.8253 13.0295L13.0238 13.831C12.8021 14.0527 12.444 14.0527 12.2223 13.831ZM0.166267 13.0296L0.967727 13.8311C1.18941 14.0527 1.54751 14.0527 1.76919 13.8311L6.99287 8.60727L5.38427 6.99867L0.166267 12.2281C-0.0554225 12.4498 -0.0554225 12.8079 0.166267 13.0296Z" fill="#23646A"/>
</svg>
