<?xml version="1.0" encoding="utf-8"?>
<!-- Generator: Adobe Illustrator 16.0.4, SVG Export Plug-In . SVG Version: 6.00 Build 0)  -->
<!DOCTYPE svg PUBLIC "-//W3C//DTD SVG 1.1//EN" "http://www.w3.org/Graphics/SVG/1.1/DTD/svg11.dtd">
<svg version="1.1" id="Layer_1" xmlns="http://www.w3.org/2000/svg" xmlns:xlink="http://www.w3.org/1999/xlink" x="0px" y="0px"
	 width="72px" height="72px" viewBox="0 0 72 72" enable-background="new 0 0 72 72" xml:space="preserve">
<g>
	<circle cx="35.971" cy="15.215" r="5.013"/>
	<path d="M61.654,56.547H47.124c0,0-0.257-0.896-0.384-1.309c-0.129-0.408-0.77-2.151-0.77-2.151L48.507,36.3
		c0,0,0.461,0.282,1.05,0.144c1.875-0.437,1.538-2.374,1.23-2.989c-0.308-0.615-1.205-1.153-1.205-1.153l1.725-12.114
		c0.374-0.215,0.868-0.543,0.868-0.543c2.565-1.573,0.175-4.313-2.215-3.147c-0.847,0.413-6.529,3.556-8.278,4.138
		c-1.749,0.583-4.431,1.225-4.431,1.225l3.44,3.381c0,0,2.448-0.875,3.73-1.399c0.713-0.292,3.032-1.557,4.949-2.623L47.61,31.431
		c0,0-4.844-2.127-6.304-3.127c-1.461-1-4.511-4.101-5.92-5.202c-1.409-1.102-3.28-0.821-3.28-0.821s-1.999,0.052-2.614,0.36
		c-0.615,0.307-0.897,1.332-0.897,1.332s-4.253,12.583-4.228,13.276c0.026,0.691,0.667,1.589,0.667,1.589l6.97,7.535v10.226h-8.124
		l3.896-11.508l-3.947-4.305l-5.151,15.938h-6.483c0,0-1.473-0.102-1.472,1.537c0,1.643-0.117,1.898,6.905,3.204
		c7.022,1.309,17.889,1.077,29.421,1.104c11.532,0.025,16.16-2.641,16.16-4.151C63.207,56.905,61.654,56.547,61.654,56.547z
		 M43.817,53.061c0,0-1,1.257-1.307,1.819c-0.308,0.563-0.794,1.691-0.794,1.691h-4.752v-12.07l-4.807-5.688l3.639-10.021
		c0,0,3.383,3.28,4.203,3.69c0.82,0.41,6.715,3.254,6.715,3.254L43.817,53.061z"/>
</g>
</svg>
