<svg width="87" height="87" viewBox="0 0 87 87" fill="none" xmlns="http://www.w3.org/2000/svg">
<circle cx="43.5" cy="43.5" r="41" fill="#23646A" stroke="white" stroke-width="5"/>
<path d="M43.9775 31.7329C46.1308 31.7329 47.8765 29.9872 47.8765 27.8339C47.8765 25.6805 46.1308 23.9349 43.9775 23.9349C41.8241 23.9349 40.0785 25.6805 40.0785 27.8339C40.0785 29.9872 41.8241 31.7329 43.9775 31.7329Z" fill="#FDFDFD"/>
<path d="M63.9531 59.981H52.652C52.652 59.981 52.4521 59.2841 52.3533 58.9629C52.253 58.6456 51.7545 57.2899 51.7545 57.2899L53.7277 44.2333C53.7277 44.2333 54.0862 44.4527 54.5443 44.3453C56.0027 44.0054 55.7406 42.4989 55.501 42.0206C55.2615 41.5422 54.5638 41.1238 54.5638 41.1238L55.9055 31.7018C56.1963 31.5345 56.5806 31.2794 56.5806 31.2794C58.5756 30.056 56.7167 27.9249 54.8578 28.8318C54.199 29.153 49.7797 31.5975 48.4193 32.0502C47.059 32.5037 44.973 33.003 44.973 33.003L47.6486 35.6327C47.6486 35.6327 49.5526 34.9521 50.5497 34.5445C51.1042 34.3174 52.9079 33.3335 54.3989 32.5044L53.03 40.4463C53.03 40.4463 49.2625 38.792 48.1269 38.0142C46.9906 37.2364 44.6183 34.8245 43.5225 33.9682C42.4266 33.1111 40.9713 33.3297 40.9713 33.3297C40.9713 33.3297 39.4166 33.3701 38.9382 33.6097C38.4599 33.8484 38.2406 34.6457 38.2406 34.6457C38.2406 34.6457 34.9327 44.4324 34.9521 44.9714C34.9723 45.5089 35.4709 46.2073 35.4709 46.2073L40.892 52.0679V60.0214H34.5733L37.6036 51.0708L34.5337 47.7224L30.5273 60.1187H25.485C25.485 60.1187 24.3393 60.0393 24.3401 61.3141C24.3401 62.592 24.2491 62.7903 29.7107 63.8061C35.1722 64.8242 43.6243 64.6438 52.5937 64.6648C61.563 64.6842 65.1626 62.6107 65.1626 61.4362C65.161 60.2594 63.9531 59.981 63.9531 59.981ZM50.0799 57.2697C50.0799 57.2697 49.3021 58.2473 49.0633 58.6844C48.8238 59.1223 48.4458 59.9997 48.4458 59.9997H44.7498V50.6119L41.011 46.1879L43.8413 38.3938C43.8413 38.3938 46.4726 40.9449 47.1103 41.2638C47.7481 41.5827 52.3331 43.7947 52.3331 43.7947L50.0799 57.2697Z" fill="white"/>
</svg>
