<?xml version="1.0" encoding="UTF-8"?>
<svg width="19px" height="19px" viewBox="0 0 19 19" version="1.1" xmlns="http://www.w3.org/2000/svg" xmlns:xlink="http://www.w3.org/1999/xlink">
    <title>dot-blue 2</title>
    <g id="Page-1" stroke="none" stroke-width="1" fill="none" fill-rule="evenodd">
        <g id="dot-blue-2" fill-rule="nonzero">
            <g id="dot-blue">
                <path d="M18.69,9.43 C18.69,10.732 18.428,11.971 17.956,13.099 C17.483,14.226 16.799,15.241 15.953,16.097 C15.107,16.95 14.1,17.639 12.983,18.118 C11.864,18.595 10.635,18.859 9.345,18.859 C8.053,18.859 6.824,18.595 5.706,18.118 C4.588,17.64 3.582,16.95 2.736,16.097 C1.889,15.242 1.206,14.227 0.733,13.099 C0.262,11.971 0,10.731 0,9.43 C0,8.128 0.262,6.889 0.734,5.76 C1.207,4.632 1.89,3.616 2.737,2.763 C3.583,1.91 4.59,1.219 5.707,0.741 C6.825,0.265 8.054,0 9.346,0 C10.636,0 11.865,0.265 12.984,0.741 C14.101,1.219 15.108,1.91 15.954,2.763 C16.8,3.617 17.484,4.632 17.957,5.76 C18.428,6.889 18.69,8.127 18.69,9.43 Z" id="Path" fill="#3D3D3D" opacity="0.5"></path>
                <path d="M16.928,8.747 C16.928,9.794 16.716,10.791 16.332,11.698 C15.949,12.606 15.393,13.423 14.707,14.108 C14.021,14.795 13.205,15.35 12.297,15.734 C11.39,16.117 10.393,16.33 9.346,16.33 C8.299,16.33 7.301,16.117 6.394,15.734 C5.486,15.35 4.67,14.795 3.984,14.108 C3.298,13.422 2.742,12.606 2.359,11.698 C1.975,10.791 1.763,9.794 1.763,8.747 C1.763,7.701 1.975,6.704 2.359,5.796 C2.742,4.889 3.298,4.071 3.984,3.386 C4.67,2.7 5.485,2.145 6.394,1.761 C7.3,1.378 8.298,1.164 9.345,1.164 C10.392,1.164 11.389,1.378 12.296,1.761 C13.204,2.145 14.02,2.7 14.706,3.386 C15.392,4.072 15.948,4.889 16.331,5.796 C16.716,6.704 16.928,7.701 16.928,8.747 Z" id="Path" stroke="#FFFFFF" stroke-width="2" fill="#BF1B1B"></path>
            </g>
        </g>
    </g>
</svg>