<svg width="72" height="72" viewBox="0 0 72 72" fill="none" xmlns="http://www.w3.org/2000/svg">
<path d="M35.971 20.228C38.7396 20.228 40.984 17.9836 40.984 15.215C40.984 12.4464 38.7396 10.202 35.971 10.202C33.2024 10.202 30.958 12.4464 30.958 15.215C30.958 17.9836 33.2024 20.228 35.971 20.228Z" fill="#FDFDFD"/>
<path d="M61.654 56.547H47.124C47.124 56.547 46.867 55.651 46.74 55.238C46.611 54.83 45.97 53.087 45.97 53.087L48.507 36.3C48.507 36.3 48.968 36.582 49.557 36.444C51.432 36.007 51.095 34.07 50.787 33.455C50.479 32.84 49.582 32.302 49.582 32.302L51.307 20.188C51.681 19.973 52.175 19.645 52.175 19.645C54.74 18.072 52.35 15.332 49.96 16.498C49.113 16.911 43.431 20.054 41.682 20.636C39.933 21.219 37.251 21.861 37.251 21.861L40.691 25.242C40.691 25.242 43.139 24.367 44.421 23.843C45.134 23.551 47.453 22.286 49.37 21.22L47.61 31.431C47.61 31.431 42.766 29.304 41.306 28.304C39.845 27.304 36.795 24.203 35.386 23.102C33.977 22 32.106 22.281 32.106 22.281C32.106 22.281 30.107 22.333 29.492 22.641C28.877 22.948 28.595 23.973 28.595 23.973C28.595 23.973 24.342 36.556 24.367 37.249C24.393 37.94 25.034 38.838 25.034 38.838L32.004 46.373V56.599H23.88L27.776 45.091L23.829 40.786L18.678 56.724H12.195C12.195 56.724 10.722 56.622 10.723 58.261C10.723 59.904 10.606 60.159 17.628 61.465C24.65 62.774 35.517 62.542 47.049 62.569C58.581 62.594 63.209 59.928 63.209 58.418C63.207 56.905 61.654 56.547 61.654 56.547ZM43.817 53.061C43.817 53.061 42.817 54.318 42.51 54.88C42.202 55.443 41.716 56.571 41.716 56.571H36.964V44.501L32.157 38.813L35.796 28.792C35.796 28.792 39.179 32.072 39.999 32.482C40.819 32.892 46.714 35.736 46.714 35.736L43.817 53.061Z" fill="white"/>
</svg>
