<?xml version="1.0" standalone="no"?>
<!DOCTYPE svg PUBLIC "-//W3C//DTD SVG 20010904//EN"
 "http://www.w3.org/TR/2001/REC-SVG-20010904/DTD/svg10.dtd">
<svg version="1.0" xmlns="http://www.w3.org/2000/svg"
 width="513.000000pt" height="513.000000pt" viewBox="0 0 513.000000 513.000000"
 preserveAspectRatio="xMidYMid meet">
<metadata>
Created by potrace 1.14, written by Peter Selinger 2001-2017
</metadata>
<g transform="translate(0.000000,513.000000) scale(0.100000,-0.100000)"
fill="#000000" stroke="none">
<path d="M2467 5124 c-1 -1 -45 -4 -97 -8 -191 -12 -396 -52 -581 -112 -144
-46 -321 -120 -399 -165 -8 -5 -25 -13 -37 -18 -73 -32 -314 -196 -433 -295
-118 -98 -275 -264 -409 -432 -24 -30 -133 -197 -168 -259 -145 -250 -268
-598 -307 -865 -33 -230 -38 -569 -12 -717 2 -10 7 -40 10 -68 13 -91 17 -109
47 -235 244 -998 1082 -1763 2099 -1915 216 -32 556 -37 710 -10 14 2 57 9 95
15 102 16 297 64 396 98 243 84 430 180 683 352 12 8 54 40 92 70 337 266 613
634 778 1035 49 120 121 351 132 420 5 35 11 45 28 47 18 3 21 11 24 50 3 41
1 47 -14 41 -13 -5 -15 -2 -11 13 15 48 30 263 30 409 -1 525 -161 1031 -462
1460 -125 179 -333 398 -517 545 -199 160 -481 313 -739 403 -77 27 -213 66
-254 73 -14 3 -42 9 -62 15 -54 14 -222 38 -314 45 -75 5 -303 12 -308 8z"/>
</g>
</svg>
